<?xml version="1.0" encoding="UTF-8"?>
<svg width="64" height="64" viewBox="0 0 64 64" xmlns="http://www.w3.org/2000/svg">
  <!-- Background circle -->
  <circle cx="32" cy="32" r="30" fill="#3776ab" stroke="#2e5c8a" stroke-width="2"/>

  <!-- Python logo inspired design -->
  <g transform="translate(16, 16)">
    <!-- Upper snake (blue) -->
    <path d="M8 4 C12 4, 16 6, 16 10 L16 16 L12 16 L12 12 C12 10, 10 8, 8 8 L4 8 C2 8, 0 10, 0 12 L0 16 L4 16 L4 20 L8 20"
          fill="#ffd43b" stroke="#2e5c8a" stroke-width="1"/>

    <!-- Lower snake (yellow) -->
    <path d="M24 28 C20 28, 16 26, 16 22 L16 16 L20 16 L20 20 C20 22, 22 24, 24 24 L28 24 C30 24, 32 22, 32 20 L32 16 L28 16 L28 12 L24 12"
          fill="#3776ab" stroke="#ffd43b" stroke-width="1"/>

    <!-- Python dots -->
    <circle cx="6" cy="6" r="1.5" fill="#ffffff"/>
    <circle cx="26" cy="26" r="1.5" fill="#ffffff"/>
  </g>

  <!-- GitHub-style folder icon -->
  <g transform="translate(40, 45)">
    <rect x="0" y="0" width="20" height="14" rx="2" fill="#f0f6ff" stroke="#0969da" stroke-width="1"/>
    <rect x="0" y="2" width="8" height="3" rx="1" fill="#0969da"/>
    <line x1="4" y1="8" x2="16" y2="8" stroke="#0969da" stroke-width="1"/>
    <line x1="4" y1="11" x2="12" y2="11" stroke="#0969da" stroke-width="1"/>
  </g>
</svg>
